<?xml version="1.0" standalone="no"?>
<!DOCTYPE svg PUBLIC "-//W3C//DTD SVG 20010904//EN"
 "http://www.w3.org/TR/2001/REC-SVG-20010904/DTD/svg10.dtd">
<svg version="1.0" xmlns="http://www.w3.org/2000/svg"
 width="256.000000pt" height="256.000000pt" viewBox="0 0 256.000000 256.000000"
 preserveAspectRatio="xMidYMid meet">

<g transform="translate(0.000000,256.000000) scale(0.100000,-0.100000)"
fill="#000000" stroke="none">
<path d="M142 2130 c-29 -12 -37 -35 -24 -66 l12 -24 184 0 c178 0 186 -1 209
-22 20 -19 55 -121 176 -518 83 -272 158 -514 167 -537 18 -51 70 -98 121
-112 61 -17 1108 -14 1156 3 45 17 74 40 94 79 22 44 203 637 209 687 7 60
-27 126 -82 157 l-39 23 -676 0 c-512 0 -678 -3 -687 -12 -16 -16 -15 -53 1
-67 10 -7 213 -11 681 -13 l668 -3 19 -24 c10 -13 19 -33 19 -46 0 -12 -43
-164 -96 -336 -76 -251 -100 -319 -120 -336 l-25 -23 -553 0 c-535 0 -553 1
-573 20 -23 21 -28 37 -223 669 -67 217 -128 408 -136 423 -8 15 -33 40 -56
56 -41 27 -44 27 -222 29 -101 2 -191 -1 -204 -7z"/>
<path d="M1163 1404 c-3 -8 -1 -20 4 -25 5 -5 175 -8 429 -7 411 3 419 3 419
23 0 20 -8 20 -423 23 -377 2 -423 1 -429 -14z"/>
<path d="M1222 1201 c-8 -5 -12 -17 -10 -27 3 -18 20 -19 371 -22 322 -2 368
0 373 13 4 8 1 22 -6 30 -11 13 -65 15 -364 15 -193 0 -357 -4 -364 -9z"/>
<path d="M999 622 c-24 -21 -32 -38 -36 -75 -5 -43 -3 -49 30 -82 30 -30 42
-35 80 -35 54 0 91 26 107 75 35 107 -97 192 -181 117z"/>
<path d="M1954 616 c-39 -39 -45 -86 -19 -136 20 -38 43 -50 100 -50 40 0 52
5 76 31 48 51 36 145 -22 175 -50 25 -97 18 -135 -20z"/>
</g>
</svg>
